<?xml version="1.0" encoding="UTF-8" standalone="no"?>
<svg
   xmlns:dc="http://purl.org/dc/elements/1.1/"
   xmlns:cc="http://creativecommons.org/ns#"
   xmlns:rdf="http://www.w3.org/1999/02/22-rdf-syntax-ns#"
   xmlns:svg="http://www.w3.org/2000/svg"
   xmlns="http://www.w3.org/2000/svg"
   xmlns:sodipodi="http://sodipodi.sourceforge.net/DTD/sodipodi-0.dtd"
   xmlns:inkscape="http://www.inkscape.org/namespaces/inkscape"
   width="425"
   height="233"
   viewBox="0 0 112.44792 61.647915"
   version="1.1"
   id="svg915"
   inkscape:version="1.0.1 (3bc2e813f5, 2020-09-07)"
   sodipodi:docname="logomonte.svg">
  <defs
     id="defs909">
    <clipPath
       clipPathUnits="userSpaceOnUse"
       id="clipPath18">
      <path
         d="M 0,841.89 H 595.276 V 0 H 0 Z"
         id="path16" />
    </clipPath>
    <clipPath
       clipPathUnits="userSpaceOnUse"
       id="clipPath18-3">
      <path
         d="M 0,841.89 H 595.276 V 0 H 0 Z"
         id="path16-6" />
    </clipPath>
  </defs>
  <sodipodi:namedview
     id="base"
     pagecolor="#ffffff"
     bordercolor="#666666"
     borderopacity="1.0"
     inkscape:pageopacity="0.0"
     inkscape:pageshadow="2"
     inkscape:zoom="1.4509277"
     inkscape:cx="303.44376"
     inkscape:cy="146.68463"
     inkscape:document-units="mm"
     inkscape:current-layer="layer1"
     inkscape:document-rotation="0"
     showgrid="false"
     units="px"
     inkscape:window-width="1512"
     inkscape:window-height="1012"
     inkscape:window-x="2517"
     inkscape:window-y="149"
     inkscape:window-maximized="0" />
  <metadata
     id="metadata912">
    <rdf:RDF>
      <cc:Work
         rdf:about="">
        <dc:format>image/svg+xml</dc:format>
        <dc:type
           rdf:resource="http://purl.org/dc/dcmitype/StillImage" />
        <dc:title></dc:title>
      </cc:Work>
    </rdf:RDF>
  </metadata>
  <g
     inkscape:label="Ebene 1"
     inkscape:groupmode="layer"
     id="layer1">
    <g
       id="g12"
       inkscape:export-filename="/run/media/spezi/DATA/monte/logo.png"
       inkscape:export-xdpi="72"
       inkscape:export-ydpi="72"
       transform="matrix(0.35277777,0,0,-0.35277777,-48.919756,179.51341)">
      <g
         id="g14"
         clip-path="url(#clipPath18-3)">
        <g
           id="g20"
           transform="translate(446.126,333.8478)">
          <path
             d="m 0,0 h -295.331 c -6.262,0 -11.339,5.076 -11.339,11.339 v 151.536 c 0,6.262 5.077,11.338 11.339,11.338 H 0 c 6.262,0 11.338,-5.076 11.338,-11.338 V 11.339 C 11.338,5.076 6.262,0 0,0"
             style="fill:#1a3576;fill-opacity:1;fill-rule:nonzero;stroke:none"
             id="path22" />
        </g>
        <g
           id="g24"
           transform="translate(173.9463,380.2159)">
          <path
             d="M 0,0 H 3.19 V 13.777 H 3.238 L 6.308,0 h 2.707 l 3.07,13.777 h 0.048 V 0 h 3.19 V 17.258 H 10.175 L 7.686,5.076 H 7.638 L 5.172,17.258 H 0 Z m 19.866,8.629 c 0,-5.245 0.653,-8.967 5.874,-8.967 5.22,0 5.873,3.722 5.873,8.967 0,5.244 -0.653,8.967 -5.873,8.967 -5.221,0 -5.874,-3.723 -5.874,-8.967 m 3.481,0 c 0,4.616 0.339,6.404 2.393,6.404 2.054,0 2.393,-1.788 2.393,-6.404 0,-4.641 -0.339,-6.405 -2.393,-6.405 -2.054,0 -2.393,1.764 -2.393,6.405 m 12.736,8.629 V 0 h 3.19 v 12.085 h 0.049 L 43.576,0 H 47.54 V 17.258 H 44.349 V 5.438 h -0.048 l -4.206,11.82 z m 15.371,0 v -2.853 h 3.771 V 0 h 3.48 v 14.405 h 3.771 v 2.853 z m 14.936,0 V 0 h 9.885 v 2.852 h -6.404 v 4.64 h 5.8 v 2.853 h -5.8 v 4.06 h 6.163 v 2.853 z M 79.755,5.39 V 4.689 c 0,-3.191 1.547,-5.027 5.487,-5.027 3.771,0 5.994,1.643 5.994,5.293 0,2.103 -0.676,3.432 -3.287,4.568 l -2.683,1.161 c -1.474,0.628 -1.788,1.28 -1.788,2.343 0,1.016 0.411,2.006 1.981,2.006 1.33,0 1.886,-0.942 1.886,-2.561 h 3.335 v 0.483 c 0,3.312 -2.247,4.641 -5.341,4.641 -3.287,0 -5.342,-1.716 -5.342,-5.076 0,-2.876 1.426,-4.157 4.52,-5.221 2.296,-0.797 3.093,-1.377 3.093,-2.948 0,-1.451 -1.014,-2.127 -2.078,-2.127 -1.837,0 -2.296,1.039 -2.296,2.659 V 5.39 Z m 14.96,0 V 4.689 c 0,-3.191 1.547,-5.027 5.487,-5.027 3.771,0 5.994,1.643 5.994,5.293 0,2.103 -0.676,3.432 -3.287,4.568 l -2.683,1.161 c -1.474,0.628 -1.788,1.28 -1.788,2.343 0,1.016 0.411,2.006 1.981,2.006 1.33,0 1.886,-0.942 1.886,-2.561 h 3.335 v 0.483 c 0,3.312 -2.247,4.641 -5.341,4.641 -3.287,0 -5.342,-1.716 -5.342,-5.076 0,-2.876 1.426,-4.157 4.52,-5.221 2.296,-0.797 3.093,-1.377 3.093,-2.948 0,-1.451 -1.014,-2.127 -2.078,-2.127 -1.837,0 -2.296,1.039 -2.296,2.659 V 5.39 Z m 15.275,3.239 c 0,-5.245 0.653,-8.967 5.873,-8.967 5.221,0 5.873,3.722 5.873,8.967 0,5.244 -0.652,8.967 -5.873,8.967 -5.22,0 -5.873,-3.723 -5.873,-8.967 m 3.481,0 c 0,4.616 0.338,6.404 2.392,6.404 2.055,0 2.393,-1.788 2.393,-6.404 0,-4.641 -0.338,-6.405 -2.393,-6.405 -2.054,0 -2.392,1.764 -2.392,6.405 m 16.216,6.066 h 1.644 c 1.571,0 2.417,-0.798 2.417,-2.392 0,-1.862 -0.942,-2.586 -2.61,-2.586 h -1.451 z M 126.207,0 h 3.48 v 7.299 h 1.862 c 1.401,0 2.006,-0.821 2.054,-2.175 L 133.7,1.812 C 133.724,1.136 133.796,0.483 134.135,0 h 3.77 v 0.145 c -0.652,0.338 -0.749,1.281 -0.773,3.093 -0.049,3.651 -0.411,4.955 -2.779,5.27 v 0.049 c 1.957,0.41 2.876,1.957 2.876,4.254 0,2.948 -1.741,4.447 -4.593,4.447 h -6.429 z m 19.504,17.258 h -3.48 V 0 h 3.48 z m 4.857,-11.699 h 6.815 v 2.853 h -6.815 z M 161.396,5.39 V 4.689 c 0,-3.191 1.546,-5.027 5.487,-5.027 3.77,0 5.994,1.643 5.994,5.293 0,2.103 -0.677,3.432 -3.287,4.568 l -2.683,1.161 c -1.474,0.628 -1.789,1.28 -1.789,2.343 0,1.016 0.411,2.006 1.983,2.006 1.329,0 1.884,-0.942 1.884,-2.561 h 3.336 v 0.483 c 0,3.312 -2.248,4.641 -5.342,4.641 -3.287,0 -5.341,-1.716 -5.341,-5.076 0,-2.876 1.425,-4.157 4.519,-5.221 2.297,-0.797 3.094,-1.377 3.094,-2.948 0,-1.451 -1.015,-2.127 -2.078,-2.127 -1.837,0 -2.297,1.039 -2.297,2.659 V 5.39 Z m 26.488,6.043 c 0,2.513 -0.363,6.163 -5.342,6.163 -5.221,0 -5.873,-3.723 -5.873,-8.967 0,-5.245 0.652,-8.967 5.873,-8.967 4.568,0 5.487,3.214 5.487,6.937 h -3.48 c 0,-3.723 -0.919,-4.375 -2.176,-4.375 -1.498,0 -2.224,0.942 -2.224,6.163 0,4.883 0.412,6.646 2.176,6.646 1.571,0 2.078,-1.087 2.078,-3.6 z M 192.427,0 h 3.48 v 7.662 h 4.061 V 0 h 3.48 v 17.258 h -3.48 v -6.599 h -4.061 v 6.599 h -3.48 z m 15.637,17.258 V 5.221 c 0,-4.617 2.683,-5.559 5.511,-5.559 2.828,0 5.511,1.16 5.511,5.559 v 12.037 h -3.481 V 5.221 c 0,-1.716 -0.411,-2.997 -2.03,-2.997 -1.619,0 -2.03,1.281 -2.03,2.997 V 17.258 Z M 233.346,0 v 2.852 h -6.163 v 14.406 h -3.481 V 0 Z m 3.964,17.258 V 0 h 9.884 v 2.852 h -6.404 v 4.64 h 5.801 v 2.853 h -5.801 v 4.06 h 6.163 v 2.853 z"
             style="fill:#ffffff;fill-opacity:1;fill-rule:nonzero;stroke:none"
             id="path26" />
        </g>
        <g
           id="g28"
           transform="translate(442.5049,343.3907)">
          <path
             d="m 0,0 v 1 h -288.764 c -1.293,10e-4 -2.454,0.521 -3.302,1.367 -0.847,0.849 -1.367,2.01 -1.368,3.303 v 143.769 c 0.001,1.292 0.521,2.454 1.368,3.301 0.848,0.847 2.009,1.367 3.302,1.368 H 0 c 1.292,-0.001 2.453,-0.521 3.302,-1.368 0.845,-0.847 1.366,-2.009 1.367,-3.301 L 4.669,5.67 C 4.668,4.377 4.147,3.216 3.302,2.367 2.453,1.521 1.292,1.001 0,1 V 0 -1 c 3.684,0.001 6.668,2.985 6.669,6.67 V 149.439 C 6.668,153.123 3.684,156.107 0,156.108 h -288.764 c -3.684,-0.001 -6.669,-2.985 -6.67,-6.669 V 5.67 c 0.001,-3.685 2.986,-6.669 6.67,-6.67 H 0 Z"
             style="fill:#ffffff;fill-opacity:1;fill-rule:nonzero;stroke:none"
             id="path30" />
        </g>
        <g
           id="g32"
           transform="translate(280.3296,443.1364)">
          <path
             d="m 0,0 1.793,4.641 c -0.574,5.563 -1.016,10.247 -1.188,12.096 2.054,1.238 4.726,2.86 7.669,4.678 l 1.323,3.422 C 5.294,22.13 1.287,19.685 -1.492,18.036 l -1.63,-0.977 1.955,-1.305 C -0.883,12.788 -0.494,6.515 0,0"
             style="fill:#ffffff;fill-opacity:1;fill-rule:nonzero;stroke:none"
             id="path34" />
        </g>
        <g
           id="g36"
           transform="translate(312.2441,483.9474)">
          <path
             d="m 0,0 0.222,-0.221 0.112,0.116 z"
             style="fill:#ffffff;fill-opacity:1;fill-rule:nonzero;stroke:none"
             id="path38" />
        </g>
        <g
           id="g40"
           transform="translate(337.3525,424.4542)">
          <path
             d="M 0,0 2.077,-0.16 C 2.27,0.464 2.488,1.08 2.746,1.677 L 2.604,1.703 c 3.624,23.328 4.399,26.542 5.869,28.64 0.159,0.229 0.328,0.469 0.506,0.737 l 1.259,1.889 -3.069,1.19 c -4.225,2.535 -8.244,5.267 -11.977,8.02 l -8.618,6.775 c -5.452,4.549 -8.547,7.416 -11.461,10.318 -2.349,-2.511 -6.378,-5.868 -14.343,-10.981 l 0.978,-1.955 c 7.231,4.565 9.921,6.837 13.648,9.997 C -18.257,50.129 -7.023,40.012 6.468,31.615 4.918,29.053 3.854,25.046 0.355,2.308 Z"
             style="fill:#ffffff;fill-opacity:1;fill-rule:nonzero;stroke:none"
             id="path42" />
        </g>
        <g
           id="g44"
           transform="translate(327.5381,422.7374)">
          <path
             d="m 0,0 c 0,5.933 -4.81,10.742 -10.741,10.742 -5.933,0 -10.741,-4.809 -10.741,-10.742 0,-5.933 4.808,-10.741 10.741,-10.741 C -4.81,-10.741 0,-5.933 0,0"
             style="fill:#ffffff;fill-opacity:1;fill-rule:nonzero;stroke:none"
             id="path46" />
        </g>
        <g
           id="g48"
           transform="translate(294.6055,475.2955)">
          <path
             d="m 0,0 v -60.733 l -19.855,9.343 z"
             style="fill:#ffffff;fill-opacity:1;fill-rule:nonzero;stroke:none"
             id="path50" />
        </g>
        <g
           id="g52"
           transform="translate(304.71,422.7374)">
          <path
             d="M 0,0 C 0,4.929 2.952,9.166 7.183,11.047 L -8.856,52.558 V -8.175 L 0.59,-3.73 C 0.208,-2.555 0,-1.301 0,0"
             style="fill:#ffffff;fill-opacity:1;fill-rule:nonzero;stroke:none"
             id="path54" />
        </g>
        <g
           id="g56"
           transform="translate(420.8477,415.6866)">
          <path
             d="M 0,0 C -26.838,5.083 -54.634,8.523 -83.06,10.206 -83.096,9.478 -83.164,8.753 -83.291,8.037 -54.789,6.334 -27.154,2.849 -0.663,-2.202 -0.509,-1.452 -0.28,-0.718 0,0"
             style="fill:#ffffff;fill-opacity:1;fill-rule:nonzero;stroke:none"
             id="path58" />
        </g>
        <g
           id="g60"
           transform="translate(173.2646,413.795)">
          <path
             d="m 0,0 c 0.166,-0.732 0.258,-1.482 0.292,-2.241 31.435,6.939 64.681,11.368 99.175,12.864 0.179,0.751 0.414,1.484 0.692,2.2 C 65.663,11.388 32.062,7.034 0,0"
             style="fill:#ffffff;fill-opacity:1;fill-rule:nonzero;stroke:none"
             id="path62" />
        </g>
        <g
           id="g64"
           transform="translate(335.9453,355.9425)">
          <path
             d="m 0,0 h 4.064 c 2.81,0 3.729,1.622 3.729,3.495 0,1.589 -0.853,2.593 -2.174,2.776 v 0.034 c 1.188,0.335 1.807,1.321 1.807,2.609 0,2.291 -1.422,3.026 -3.396,3.026 H 0 Z m 2.408,10.168 h 0.87 c 1.188,0 1.74,-0.418 1.74,-1.556 0,-1.12 -0.603,-1.571 -1.924,-1.571 H 2.408 Z m 0,-4.8 h 1.037 c 1.054,0 1.84,-0.401 1.84,-1.789 0,-1.389 -0.786,-1.807 -1.94,-1.807 H 2.408 Z M 11.738,0 h 2.509 l 0.552,2.525 h 3.178 L 18.528,0 h 2.509 l -3.161,11.94 h -2.977 z m 4.633,9.867 h 0.033 L 17.559,4.499 H 15.217 Z M 25.199,0 h 2.207 v 9.532 h 0.033 L 29.563,0 h 1.874 l 2.124,9.532 h 0.033 V 0 h 2.208 V 11.94 H 32.239 L 30.517,3.512 h -0.034 l -1.706,8.428 h -3.578 z m 15.6,0 h 4.064 c 2.81,0 3.729,1.622 3.729,3.495 0,1.589 -0.853,2.593 -2.174,2.776 v 0.034 c 1.187,0.335 1.807,1.321 1.807,2.609 0,2.291 -1.422,3.026 -3.396,3.026 h -4.03 z m 2.408,10.168 h 0.87 c 1.188,0 1.739,-0.418 1.739,-1.556 0,-1.12 -0.602,-1.571 -1.923,-1.571 h -0.686 z m 0,-4.8 h 1.037 c 1.054,0 1.84,-0.401 1.84,-1.789 0,-1.389 -0.786,-1.807 -1.94,-1.807 H 43.207 Z M 53.373,11.94 V 0 h 6.84 v 1.974 h -4.432 v 3.211 h 4.014 v 1.973 h -4.014 v 2.809 h 4.265 V 11.94 Z M 67.1,10.168 h 1.137 c 1.087,0 1.672,-0.552 1.672,-1.655 0,-1.288 -0.652,-1.79 -1.805,-1.79 H 67.1 Z M 64.691,0 H 67.1 v 5.051 h 1.288 c 0.969,0 1.387,-0.569 1.421,-1.506 L 69.876,1.254 C 69.893,0.786 69.943,0.334 70.177,0 h 2.609 v 0.101 c -0.452,0.233 -0.518,0.885 -0.535,2.14 -0.034,2.526 -0.284,3.428 -1.924,3.646 V 5.92 c 1.355,0.284 1.99,1.354 1.99,2.943 0,2.041 -1.204,3.077 -3.176,3.077 h -4.45 z m 20.184,8.396 c 0,2.424 -1.07,3.779 -3.713,3.779 -3.077,0 -4.014,-2.057 -4.014,-6.071 0,-4.13 0.586,-6.338 3.546,-6.338 1.12,0 1.94,0.401 2.509,1.338 h 0.033 V 0 h 1.773 V 6.438 H 81.112 V 4.666 h 1.589 V 3.445 c 0,-1.288 -0.92,-1.906 -1.488,-1.906 -1.389,0 -1.656,1.806 -1.656,4.682 0,2.977 0.468,4.181 1.639,4.181 0.97,0 1.371,-1.121 1.371,-2.006 z"
             style="fill:#ffffff;fill-opacity:1;fill-rule:nonzero;stroke:none"
             id="path66" />
        </g>
      </g>
    </g>
  </g>
</svg>
