<?xml version="1.0" encoding="UTF-8" standalone="no"?>
<svg
   xmlns:dc="http://purl.org/dc/elements/1.1/"
   xmlns:cc="http://creativecommons.org/ns#"
   xmlns:rdf="http://www.w3.org/1999/02/22-rdf-syntax-ns#"
   xmlns:svg="http://www.w3.org/2000/svg"
   xmlns="http://www.w3.org/2000/svg"
   xmlns:sodipodi="http://sodipodi.sourceforge.net/DTD/sodipodi-0.dtd"
   xmlns:inkscape="http://www.inkscape.org/namespaces/inkscape"
   width="51mm"
   height="400mm"
   viewBox="0 0 51 400"
   version="1.1"
   id="svg1245"
   inkscape:version="1.0.2 (e86c870879, 2021-01-15)"
   sodipodi:docname="hexajoint.svg">
  <defs
     id="defs1239" />
  <sodipodi:namedview
     id="base"
     pagecolor="#ffffff"
     bordercolor="#666666"
     borderopacity="1.0"
     inkscape:pageopacity="0.0"
     inkscape:pageshadow="2"
     inkscape:zoom="1.4"
     inkscape:cx="153.60452"
     inkscape:cy="174.10342"
     inkscape:document-units="mm"
     inkscape:current-layer="layer1"
     inkscape:document-rotation="0"
     showgrid="false"
     inkscape:window-width="1920"
     inkscape:window-height="1016"
     inkscape:window-x="0"
     inkscape:window-y="0"
     inkscape:window-maximized="1" />
  <metadata
     id="metadata1242">
    <rdf:RDF>
      <cc:Work
         rdf:about="">
        <dc:format>image/svg+xml</dc:format>
        <dc:type
           rdf:resource="http://purl.org/dc/dcmitype/StillImage" />
        <dc:title />
      </cc:Work>
    </rdf:RDF>
  </metadata>
  <g
     inkscape:label="Layer 1"
     inkscape:groupmode="layer"
     id="layer1">
    <path
       id="rect1865"
       style="opacity:0.355589;fill:#ff00ff;stroke:none;stroke-width:0.329882;stroke-linecap:round"
       d="M 0,0 H 51 V 8 H 0 Z" />
    <path
       id="rect1862"
       style="opacity:0.355589;fill:#00ff00;stroke:none;stroke-width:0.249173;stroke-linecap:round"
       d="m 0.5,8 h 50 v 99.99999 h -50 z" />
    <path
       id="rect1865-6"
       style="opacity:0.355589;fill:#ff00ff;stroke:none;stroke-width:0.329882;stroke-linecap:round"
       d="m 0,8 h 51 v 8 H 0 Z" />
    <g
       id="g1890">
      <path
         style="fill:none;stroke:#000000;stroke-width:0.1;stroke-linecap:butt;stroke-linejoin:miter;stroke-miterlimit:4;stroke-dasharray:none;stroke-opacity:1"
         d="m 0.29339232,5.4565217 3.13560008,-5.40649991 6.262,0.01 3.1261996,5.41209991 -3.1356996,5.4064023 3.1262996,5.4121 6.2619,0.01 3.1357,-5.4065 -3.1263,-5.4120023 3.1357,-5.40649991 6.2619,0.01 3.1263,5.41089991 -3.1357,5.4076023 3.1263,5.4121 h 6.2619 l 3.1357,-5.4049 -3.1263,-5.4121023 3.1357,-5.40639991 6.2619,0.01 3.1263,5.41209991"
         id="path1152-7-9"
         sodipodi:nodetypes="cccccccccccccccccccc" />
      <path
         id="path1152-7-0-3"
         style="fill:none;stroke:#0000ff;stroke-width:0.1;stroke-linecap:butt;stroke-linejoin:miter;stroke-miterlimit:4;stroke-dasharray:none;stroke-opacity:1"
         d="m 0.04324912,10.2303 c 1.17690998,2.0287 2.35417998,4.0572 3.53124998,6.0859 1.99088,0 3.98177,-0.01 5.97265,-0.01 L 12.527619,11.1441 C 11.482759,9.3419996 10.437449,7.5401 9.3928591,5.7379 10.483429,3.8505 11.573769,1.9631 12.664339,0.0758 c 2.18359,0 4.36719,-0.01 6.55078,-0.012 1.09277,1.8863 2.18653,3.772 3.2793,5.6582 -1.04239,1.804 -2.08463,3.6080996 -3.12696,5.4122 0.9974,1.7187 1.9948,3.4375 2.99219,5.1562 1.99089,0 3.98177,-0.01 5.97266,-0.01 l 2.98242,-5.1621 c -1.04551,-1.8027004 -2.09151,-3.6052 -3.13672,-5.4082 1.09053,-1.8867 2.18096,-3.7734 3.27149,-5.6601 h 6.55078 c 1.09267,1.885 2.18662,3.7693 3.27929,5.6543 -1.0418,1.8039 -2.08331,3.6080996 -3.125,5.4121 0.99675,1.7187 1.99349,3.4375 2.99024,5.1562 1.99088,0 3.98177,-0.01 5.97265,-0.01 1.17395,-2.0312 2.34663,-4.0631 3.52149,-6.0938"
         sodipodi:nodetypes="cccccccccccccccccccc" />
    </g>
    <path
       d="M -0.12917,108.09999 H 16.133 m 3,0 H 47.6 m 3.52917,1.5 H 34.867 m -3,0 H 3.4 m -3.52917,1.5 H 16.133 m 3,0 H 47.6 m 3.52917,1.5 H 34.867 m -3,0 H 3.4 m -3.52917,1.5 H 16.133 m 3,0 H 47.6 m 3.52917,1.5 H 34.867 m -3,0 H 3.4 m -3.52917,1.5 H 16.133 m 3,0 H 47.6 m 3.52917,1.5 H 34.867 m -3,0 H 3.4 m -3.52917,1.5 H 16.133 m 3,0 H 47.6 m 3.52917,1.5 H 34.867 m -3,0 H 3.4 m -3.52917,1.5 H 16.133 m 3,0 H 47.6 m 3.52917,1.5 H 34.867 m -3,0 H 3.4 m -3.52917,1.5 H 16.133 m 3,0 H 47.6 m 3.52917,1.5 H 34.867 m -3,0 H 3.4"
       stroke="#000000"
       stroke-width="0.2"
       id="path1186-6-3-7-6-1-7"
       style="fill:none;stroke-linecap:round;stroke-linejoin:round"
       sodipodi:nodetypes="cccccccccccccccccccccccccccccccccccccccccccccccccccccccc" />
    <text
       xml:space="preserve"
       style="font-style:normal;font-variant:normal;font-weight:normal;font-stretch:normal;font-size:10.5833px;line-height:1.25;font-family:Metropolis;-inkscape-font-specification:Metropolis;letter-spacing:0px;word-spacing:0px;fill:#ff0000;fill-opacity:1;stroke:none;stroke-width:0.264583"
       x="20.726938"
       y="33.21265"
       id="text1614"><tspan
         sodipodi:role="line"
         id="tspan1612"
         x="20.726938"
         y="33.21265"
         style="fill:#ff0000;stroke-width:0.264583">12</tspan></text>
    <text
       xml:space="preserve"
       style="font-style:normal;font-variant:normal;font-weight:normal;font-stretch:normal;font-size:4.58611px;line-height:1.25;font-family:Metropolis;-inkscape-font-specification:Metropolis;letter-spacing:0px;word-spacing:0px;fill:#ff0000;fill-opacity:1;stroke:none;stroke-width:0.264583"
       x="7.5821052"
       y="48.300053"
       id="text1614-3"><tspan
         sodipodi:role="line"
         x="7.5821052"
         y="48.300053"
         style="font-size:4.58611px;fill:#ff0000;stroke-width:0.264583"
         id="tspan1640">total length: 233 </tspan></text>
  </g>
</svg>
